<?xml version="1.0" encoding="UTF-8"?>
<svg version="1.1" viewBox="0 0 1900 1848" width="475" height="462" xmlns="http://www.w3.org/2000/svg">
  <!-- Transparent background: removed full-canvas white rectangle -->
  <path transform="translate(613,382)" d="m0 0h735l68 28 14 7 15 13 11 9 12 11 11 9 9 9 12 17 14 21 2 9 4 53v3l-141 2-95 1-295 2-221 3-93 1-26 1-12 3-59 20-19 8-22 14-15 10-19 13-8 9-10 17-12 19-15 25-7 19-9 27-1 4-1 83v355l1 21 7 11 14 20 8 10 10 7 26 14 3 1h747l10-2 33-16 13-6 9-2 14-41 1-1 1-8 2-63 1-43v-54l-5-2-10-6-14-15-9-11-16-17-18-20-7-8-15-16-32-32-6-5-5-6-7-6v-2l-4-2v-2l-4-2v-2l-4-2-9-10-1-3 4-8 5-9 9-10 7-8 12-12 7-8 10-10 1-2h2l2-4h2l2-4 28-28 15-5 20-4h10l15 3 8 7 43 43 6 5 6 7 6 5 7 8 26 26 11 9 13 11 10 8 10 9 12 15 14 19 12 19 10 17 8 14 4 10 4 17 1 9v213l-2 12-15 43-12 31-20 30-12 17-9 11-12 11-11 10-14 11-18 14-16 12-11 8-7 4-37 11-23 7-8 2h-848l-22-7-44-15-22-8-19-14-18-14-13-10-14-12-30-30-7-8-11-18-8-15-12-30-10-26-4-16-2-14v-465l6-25 16-65 5-16 12-25 18-36 16-27 10-17 9-10 43-43 9-11 16-17 8-7 14-10 30-22 13-9 34-18 22-11 20-8 32-10 25-6z" fill="#202020"/>
  <path transform="translate(880,840)" d="m0 0 23 1 31 7 12 6 16 11 11 11 9 11 11 14 6 14 6 17v58l-10 26-6 14-9 11-11 13-4 5-16 10-15 8-19 5-20 4h-37l-21-6-21-7-10-8-11-10-8-7-13-12-6-12-10-26-2-7v-45l2-12 8-26 4-9 7-8 14-14 11-9 14-12 16-8 12-4 17-3z" fill="#202020"/>
</svg>
