<?xml version="1.0" encoding="UTF-8"?>
<svg version="1.1" viewBox="0 0 1200 1200" width="1200" height="1200" xmlns="http://www.w3.org/2000/svg">
<path transform="translate(243,430)" d="m0 0h173l12 5 7 3 14 12 7 10 1 15-132 1-75 1-20 7-15 10-10 16-4 12v109l7 10 9 5h179l12-6h2l3-9 1-2 1-39-4-2-7-8-9-10-20-20 2-4 11-12 9-9 9-2 5 1 24 24 10 8 7 9 7 12 2 7v53l-7 19-9 13-8 7-13 10-17 5h-201l-21-7-13-10-11-11-4-7-6-15-1-7v-109l6-25 7-14 7-12 11-11 7-8 15-11 16-8 13-4z" fill="#1F1F20"/>
<path transform="translate(863,467)" d="m0 0h21l17 3 16 8 10 9 7 10 3 8 1 6v8l-2 1h-31l-3-10-5-8-9-5-14-2-14 2-9 5-4 6v12l5 6 12 5 27 8 15 4 12 5 11 7 8 9 4 8 2 9v15l-3 12-7 11-4 5-10 7-14 6-19 4h-23l-17-4-11-5-10-6-8-8-6-10-4-11-1-5v-8l6-2h27l2 3 3 12 7 8 7 4 11 3h16l13-4 6-4 4-6 1-8-2-8-6-5-14-5-33-9-18-7-11-7-7-8-5-10-2-7v-15l5-15 7-9 9-8 14-7z" fill="#202021"/>
<path transform="translate(795,469)" d="m0 0 1 3-16 17-18 20-7 7-7 8-12 12 1 5 8 11 11 16 13 18 16 24 18 24-1 3h-40l-7-9-7-10-11-16-12-17-14-21-5 1-7 8-6 6-1 54-1 3-2 1h-30l-1-1v-166h33l1 3v52l1 13 11-13 7-7 7-8 28-30 7-8 2-2z" fill="#202021"/>
<path transform="translate(551,467)" d="m0 0h18l17 3 14 6 11 8 9 9 9 15 4 12v7l-2 1h-32l-6-15-6-7-8-5-10-3h-14l-11 3-9 5-6 5-7 11-5 15-1 11v16l2 11 4 10 6 10 10 9 8 4 4 1h22l12-6 5-5h2l6-15 3-6h32l1 1v7l-3 11-7 14-11 12-8 7-17 8-20 4h-14l-18-3-16-7-11-8-8-7-9-13-4-8-4-12-2-9-1-10v-26l4-17 8-17 7-9 8-9 14-10 11-5 12-3z" fill="#202021"/>
<path transform="translate(525,713)" d="m0 0h35l18 2 8 4 8 9 3 10v9l-3 11-6 9-5 3h-2l4 10 6 11 6 10 1 5h-21l-5-8-10-19-2-4-6-1-10-1v33h-19l-1-1v-91zm19 18-1 26h27l5-4 2-4v-11l-3-5-4-2z" fill="#242425"/>
<path transform="translate(439,713)" d="m0 0h26l10 4 8 6 8 9 5 10 2 8v18l-3 12-7 12-9 8-8 4-6 2-8 1h-12l-10-2-10-5-10-9-6-10-3-7-1-7v-15l2-10 5-10 8-9 11-7zm8 16-10 4-6 5-5 8-1 6v17l3 8 5 6 6 4 6 2h12l9-3 9-8 4-13v-9l-3-12-4-6-6-5-10-4z" fill="#232324"/>
<path transform="translate(731,713)" d="m0 0h22l3 4 5 13 5 15 5 12 14 39 3 7v3h-20l-4-8-3-9v-3h-38l-1 7-5 13h-20l3-10 7-19 7-20 7-19 8-23zm11 21-4 9-8 24v3l25 1-2-9-8-22-2-6z" fill="#262627"/>
<path transform="translate(315,713)" d="m0 0h20l24 1 12 4 8 7 5 9 1 4v14l-4 10-7 8-5 3-6 2-9 1h-22v30h-19v-92zm18 18-1 1v26l2 1 25-1 6-7v-13l-5-6-3-1z" fill="#222223"/>
<path transform="translate(617,713)" d="m0 0h72l1 1v17l-27 1-1 74-18 1-1-1-1-74h-26l-1-1v-17z" fill="#262627"/>
<path transform="translate(302,539)" d="m0 0h8l9 2 6 4 7 8 3 8v13l-4 10-6 7-7 4-9 2h-9l-10-3-10-9-4-10v-12l3-10 5-5 7-6 5-2z" fill="#212122"/>
<path transform="translate(812,713)" d="m0 0h17l1 1 1 47v28l3-1h37v18h-60v-92z" fill="#242425"/>
</svg>
